<?xml version="1.0" standalone="no"?><!DOCTYPE svg PUBLIC "-//W3C//DTD SVG 1.1//EN" "http://www.w3.org/Graphics/SVG/1.1/DTD/svg11.dtd"><svg t="1566202500129" class="icon" viewBox="0 0 1024 1024" version="1.1" xmlns="http://www.w3.org/2000/svg" p-id="3271" xmlns:xlink="http://www.w3.org/1999/xlink" width="200" height="200"><defs><style type="text/css"></style></defs><path d="M1011.120688 467.853633C979.52218 208.752181 764.646013 12.847745 505.544561 12.847745S31.566941 208.752181-0.031567 467.853633v50.570239c0 278.073184 227.502944 505.576128 505.576128 505.576128s505.576128-227.502944 505.576127-505.576128v-50.570239zM505.576128 107.643269c202.217824 0 372.868707 145.365763 404.467215 341.270199l-63.197016 12.626777c-25.28512-170.619316-170.619316-290.69996-341.270199-290.69996V107.643269z m0 284.355005c69.510404 0 126.394032 56.883628 126.394031 126.394032s-56.883628 126.394032-126.394031 126.394031-126.394032-56.883628-126.394032-126.394031a126.772835 126.772835 0 0 1 126.394032-126.394032z m0 568.773143c-246.474676 0-442.379112-195.904436-442.379112-442.379111h252.788064c0 107.4223 82.168747 189.591048 189.591048 189.591047s189.591048-82.168747 189.591047-189.591047h252.788064c0 246.474676-195.904436 442.379112-442.379111 442.379111z" p-id="3272"></path></svg>