<?xml version="1.0" standalone="no"?><!DOCTYPE svg PUBLIC "-//W3C//DTD SVG 1.1//EN" "http://www.w3.org/Graphics/SVG/1.1/DTD/svg11.dtd"><svg t="1566202689429" class="icon" viewBox="0 0 1024 1024" version="1.1" xmlns="http://www.w3.org/2000/svg" p-id="3905" xmlns:xlink="http://www.w3.org/1999/xlink" width="200" height="200"><defs><style type="text/css"></style></defs><path d="M975.176533 128c-201.173333 29.994667-299.008 196.181333-322.688 238.677333C615.6672 354.688 573.341867 341.333333 512.4992 341.333333c-61.994667 0-104.149333 15.018667-141.354667 26.666667C347.208533 329.002667 254.365867 187.178667 47.2192 170.666667A42.709333 42.709333 0 0 0 1.7792 225.322667c17.194667 60.16 75.690667 210.858667 220.032 288-5.034667 14.848-14.506667 32.341333-16 43.989333-2.986667 22.186667-3.669333 34.176-5.333333 38.698667V597.333333c-37.205333 82.176-36.693333 152.021333-12.032 202.666667 24.832 50.986667 68.522667 79.658667 104.021333 93.354667l25.301333-68.010667c2.346667-3.498667 3.84-7.850667 5.333334-12.032 7.509333-20.821333 5.034667-48.128-7.978667-74.666667-13.013333-26.453333-33.706667-45.312-54.656-51.968 3.328-15.829333 7.68-33.493333 17.322667-54.698666l1.322666-1.28c11.008-25.856 9.813333-46.208 12.032-62.72 2.133333-16.469333 4.309333-29.824 17.322667-49.322667a42.624 42.624 0 0 0-20.010667-64c-66.346667-25.813333-107.648-72.149333-137.344-119.978667l26.666667-29.354666c92.501333 51.84 138.666667 128 138.666667 128a42.581333 42.581333 0 0 0 52.010666 21.333333C406.813867 441.856 451.3152 426.666667 512.4992 426.666667s111.146667 14.848 142.677333 26.666666a42.666667 42.666667 0 0 0 53.333334-20.010666s61.013333-101.802667 162.645333-166.656l21.333333 20.010666c-30.506667 60.330667-78.976 117.333333-160 146.645334a42.581333 42.581333 0 0 0-21.333333 64c11.861333 17.834667 17.322667 38.186667 21.333333 61.354666 3.84 22.826667 4.693333 48.341333 20.010667 75.989334 0.170667 0.341333-0.170667 0.981333 0 1.322666 8.021333 15.018667 12.501333 30.336 14.677333 45.354667-28.330667-1.322667-58.666667 25.002667-72.021333 64-12.8 37.504-6.314667 74.666667 14.677333 91.989333l25.344 54.656c103.509333-48.981333 154.453333-184.149333 91.989334-298.666666-0.981333-1.664-6.186667-21.162667-10.666667-48-2.517333-14.677333-12.501333-34.133333-18.688-52.010667C942.664533 422.826667 1015.325867 284.16 1024.4992 174.72a42.496 42.496 0 0 0-13.184-35.498667 42.496 42.496 0 0 0-36.138667-11.178666zM384.4992 597.333333c-23.466667 0-42.666667 19.2-42.666667 42.666667s19.2 42.666667 42.666667 42.666667 42.666667-19.2 42.666667-42.666667-19.2-42.666667-42.666667-42.666667z m256 0c-23.466667 0-42.666667 19.2-42.666667 42.666667s19.2 42.666667 42.666667 42.666667 42.666667-19.2 42.666667-42.666667-19.2-42.666667-42.666667-42.666667z m-128 106.666667c-14.165333 0-25.344 6.314667-25.344 13.354667 0 6.997333 11.178667 11.946667 25.344 11.946666 14.165333 0 25.344-4.949333 25.344-11.946666 0-7.04-11.178667-13.354667-25.344-13.354667z" fill="" p-id="3906"></path></svg>