<?xml version="1.0" standalone="no"?><!DOCTYPE svg PUBLIC "-//W3C//DTD SVG 1.1//EN" "http://www.w3.org/Graphics/SVG/1.1/DTD/svg11.dtd"><svg t="1566202523959" class="icon" viewBox="0 0 1024 1024" version="1.1" xmlns="http://www.w3.org/2000/svg" p-id="3388" xmlns:xlink="http://www.w3.org/1999/xlink" width="200" height="200"><defs><style type="text/css"></style></defs><path d="M379.904 590.848c26.624 46.08 76.8 75.776 132.096 75.776s104.448-29.696 132.096-75.776c142.336 3.072 224.256 10.24 266.24 16.384C867.328 789.504 703.488 922.624 512 922.624S156.672 790.528 113.664 608.256c41.984-7.168 123.904-14.336 266.24-17.408m32.768-52.224c-176.128 3.072-332.8 13.312-358.4 31.744C83.968 797.696 277.504 973.824 512 973.824c234.496 0 428.032-175.104 456.704-402.432-25.6-18.432-181.248-28.672-358.4-31.744-11.264 44.032-51.2 75.776-99.328 75.776-46.08 0-86.016-32.768-98.304-76.8z" fill="" p-id="3389"></path><path d="M512 513.024m-71.68 0a71.68 71.68 0 1 0 143.36 0 71.68 71.68 0 1 0-143.36 0Z" fill="" p-id="3390"></path><path d="M512 50.176C257.024 50.176 51.2 256 51.2 510.976V522.24c2.048-7.168 20.48-12.288 51.2-17.408 3.072-214.016 171.008-397.312 381.952-412.672 14.336-1.024 27.648 11.264 27.648 25.6 0 13.312-10.24 24.576-23.552 25.6C302.08 155.648 154.624 310.272 153.6 498.688c66.56-6.144 159.744-10.24 259.072-12.288 11.264-45.056 51.2-77.824 99.328-77.824 48.128 0 88.064 32.768 99.328 77.824 189.44 3.072 356.352 15.36 361.472 36.864V512C972.8 257.024 766.976 50.176 512 50.176z" fill="" p-id="3391"></path></svg>