<?xml version="1.0" standalone="no"?><!DOCTYPE svg PUBLIC "-//W3C//DTD SVG 1.1//EN" "http://www.w3.org/Graphics/SVG/1.1/DTD/svg11.dtd"><svg t="1577427409049" class="icon" viewBox="0 0 1024 1024" version="1.1" xmlns="http://www.w3.org/2000/svg" p-id="2565" xmlns:xlink="http://www.w3.org/1999/xlink" width="128" height="128"><defs><style type="text/css"></style></defs><path d="M877.714286 73.142857c40.301714 0 73.142857 32.841143 73.142857 73.142857v731.428572c0 40.301714-32.841143 73.142857-73.142857 73.142857H146.285714c-40.301714 0-73.142857-32.841143-73.142857-73.142857V146.285714c0-40.301714 32.841143-73.142857 73.142857-73.142857h731.428572m0-73.142857H146.285714a146.285714 146.285714 0 0 0-146.285714 146.285714v731.428572a146.285714 146.285714 0 0 0 146.285714 146.285714h731.428572a146.285714 146.285714 0 0 0 146.285714-146.285714V146.285714a146.285714 146.285714 0 0 0-146.285714-146.285714z" fill="" p-id="2566"></path><path d="M877.714286 438.857143h-73.142857V219.428571H585.142857V146.285714h292.571429z" fill="" p-id="2567"></path><path d="M815.323429 156.964571l51.712 51.712L636.928 438.857143 585.142857 387.072z" fill="" p-id="2568"></path><path d="M438.857143 877.714286H146.285714V585.142857h73.142857v219.428572h219.428572z" fill="" p-id="2569"></path><path d="M387.145143 585.142857L438.857143 636.854857l-230.107429 230.107429-51.712-51.712z" fill="" p-id="2570"></path></svg>